<svg width="40" height="40" viewBox="0 0 40 40" fill="none" xmlns="http://www.w3.org/2000/svg">
<rect width="40" height="40" rx="20" fill="#F7F7FB"/>
<path fill-rule="evenodd" clip-rule="evenodd" d="M20.8452 11.6665C24.3037 11.6665 26.0332 11.6667 27.2095 12.6909C28.3858 13.7151 28.6244 15.4277 29.1001 18.853C29.7129 23.2654 30.0194 25.4723 28.774 26.9028C27.5284 28.3334 25.3 28.3335 20.8452 28.3335H19.1538C14.6992 28.3335 12.4717 28.3332 11.2261 26.9028C9.98052 25.4723 10.2871 23.2655 10.8999 18.853C11.3756 15.4279 11.6134 13.7152 12.7896 12.6909C13.9659 11.6667 15.6953 11.6665 19.1538 11.6665H20.8452ZM19.1538 13.229C17.3838 13.229 16.2029 13.2315 15.312 13.3442C14.4649 13.4515 14.0814 13.6385 13.8159 13.8696C13.5505 14.1008 13.313 14.4548 13.0904 15.2788C12.8561 16.1457 12.6913 17.3156 12.4478 19.0688C12.1349 21.3216 11.926 22.8476 11.9283 23.9937C11.9304 25.0952 12.1329 25.5642 12.4048 25.8765C12.6768 26.1887 13.1137 26.4533 14.2046 26.6069C15.3395 26.7668 16.8793 26.771 19.1538 26.771H20.8452C23.1198 26.771 24.6605 26.7668 25.7954 26.6069C26.8862 26.4532 27.3233 26.1887 27.5952 25.8765C27.8671 25.5642 28.0686 25.095 28.0708 23.9937C28.0731 22.8476 27.8652 21.3216 27.5523 19.0688C27.3088 17.3156 27.143 16.1457 26.9087 15.2788C26.6861 14.4552 26.4494 14.1008 26.1841 13.8696C25.9186 13.6385 25.5342 13.4515 24.687 13.3442C23.7962 13.2315 22.6151 13.229 20.8452 13.229H19.1538ZM22.0337 16.6147C22.1774 16.208 22.624 15.9946 23.0308 16.1382C23.4376 16.2818 23.6509 16.7284 23.5074 17.1353C23.2383 17.8975 22.7395 18.558 22.0796 19.0249C21.4197 19.4918 20.6311 19.7427 19.8228 19.7427C19.0145 19.7427 18.2258 19.4918 17.5659 19.0249C16.9061 18.558 16.4072 17.8975 16.1382 17.1353C15.9947 16.7284 16.2079 16.2818 16.6148 16.1382C17.0216 15.9946 17.4682 16.208 17.6118 16.6147C17.7732 17.0721 18.0724 17.4683 18.4683 17.7485C18.8643 18.0288 19.3376 18.1802 19.8228 18.1802C20.3079 18.1802 20.7812 18.0288 21.1773 17.7485C21.5732 17.4683 21.8723 17.0721 22.0337 16.6147Z" fill="#0A0F17"/>
</svg>
