<svg width="40" height="40" viewBox="0 0 40 40" fill="none" xmlns="http://www.w3.org/2000/svg">
<rect width="40" height="40" rx="20" fill="#F7F7FB"/>
<path d="M29.0628 27.7157C27.7217 25.4051 25.655 23.7482 23.2431 22.9628C24.4362 22.255 25.3631 21.1766 25.8815 19.893C26.3999 18.6094 26.4812 17.1917 26.1129 15.8576C25.7446 14.5235 24.9471 13.3468 23.8428 12.5081C22.7385 11.6695 21.3884 11.2153 20 11.2153C18.6116 11.2153 17.2616 11.6695 16.1573 12.5081C15.053 13.3468 14.2554 14.5235 13.8871 15.8576C13.5188 17.1917 13.6002 18.6094 14.1186 19.893C14.637 21.1766 15.5639 22.255 16.7569 22.9628C14.3451 23.7474 12.2784 25.4042 10.9373 27.7157C10.8881 27.7956 10.8555 27.8845 10.8414 27.9772C10.8272 28.0699 10.8319 28.1644 10.855 28.2553C10.8781 28.3462 10.9193 28.4315 10.976 28.5063C11.0328 28.581 11.104 28.6437 11.1855 28.6906C11.2669 28.7375 11.357 28.7676 11.4503 28.7793C11.5437 28.7909 11.6384 28.7838 11.729 28.7584C11.8195 28.733 11.904 28.6897 11.9775 28.6312C12.051 28.5727 12.112 28.5001 12.1569 28.4177C13.8159 25.5604 16.7481 23.8544 20 23.8544C23.252 23.8544 26.1842 25.5604 27.8432 28.4177C27.8881 28.5001 27.9491 28.5727 28.0226 28.6312C28.0961 28.6897 28.1806 28.733 28.2711 28.7584C28.3617 28.7838 28.4564 28.7909 28.5497 28.7793C28.6431 28.7676 28.7331 28.7375 28.8146 28.6906C28.8961 28.6437 28.9673 28.581 29.024 28.5063C29.0808 28.4315 29.1219 28.3462 29.1451 28.2553C29.1682 28.1644 29.1728 28.0699 29.1587 27.9772C29.1446 27.8845 29.1119 27.7956 29.0628 27.7157ZM15.0689 17.536C15.0689 16.5641 15.3581 15.614 15.8999 14.8058C16.4418 13.9977 17.2119 13.3678 18.113 12.9958C19.014 12.6239 20.0055 12.5266 20.9621 12.7162C21.9186 12.9058 22.7972 13.3738 23.4869 14.0611C24.1765 14.7484 24.6462 15.624 24.8364 16.5773C25.0267 17.5306 24.929 18.5187 24.5558 19.4167C24.1826 20.3146 23.5506 21.0821 22.7396 21.6221C21.9287 22.1621 20.9753 22.4503 20 22.4503C18.6927 22.4489 17.4392 21.9307 16.5147 21.0094C15.5903 20.0881 15.0703 18.839 15.0689 17.536Z" fill="#0A0F17"/>
</svg>
